# xmcd
#
# Track frame offsets: 
#        150
#        12075
#        24062
#        37363
#        49964
#        61939
#        74565
#        85918
#        99570
#        109921
#        120347
#
# Disc length: 1779 seconds
#
# Revision: 3
# Processed by: cddbd v1.5.2PL0 Copyright (c) Steve Scherf et al.
# Submitted via: ExactAudioCopyFreeDBPlugin 1.0
#
DISCID=8e06f10b
DTITLE=Sam and Dave - Sam and Dave:  Collectables Classics [box set]
DYEAR=2006
DGENRE=Soul
TTITLE0=Soul Man
TTITLE1=May I Baby
TTITLE2=Broke Down Piece of Man
TTITLE3=Let it Be Me
TTITLE4=Hold it Baby
TTITLE5=I'm with You
TTITLE6=Don't Knock It
TTITLE7=Just Keep Holding On
TTITLE8=The Good Runs the Bad Way
TTITLE9=Rich Kind of Poverty
TTITLE10=I've Seen What Loneliness Can Do
EXTD=YEAR: 1967
EXTT0=
EXTT1=
EXTT2=
EXTT3=
EXTT4=
EXTT5=
EXTT6=
EXTT7=
EXTT8=
EXTT9=
EXTT10=
PLAYORDER=
